<svg width="30" height="24" viewBox="0 0 30 24" fill="none" xmlns="http://www.w3.org/2000/svg">
<path d="M14.6034 6.52885L5.00078 14.24V22.5625C5.00078 22.778 5.08858 22.9847 5.24486 23.137C5.40114 23.2894 5.6131 23.375 5.83411 23.375L11.6706 23.3603C11.8909 23.3592 12.1018 23.2731 12.2571 23.1209C12.4125 22.9686 12.4997 22.7626 12.4997 22.5478V17.6875C12.4997 17.472 12.5875 17.2654 12.7438 17.113C12.9001 16.9606 13.1121 16.875 13.3331 16.875H16.6664C16.8874 16.875 17.0994 16.9606 17.2557 17.113C17.4119 17.2654 17.4997 17.472 17.4997 17.6875V22.5442C17.4994 22.6512 17.5207 22.7571 17.5624 22.856C17.6042 22.9548 17.6655 23.0447 17.7429 23.1204C17.8203 23.1961 17.9123 23.2562 18.0136 23.2972C18.1148 23.3382 18.2234 23.3593 18.3331 23.3593L24.1674 23.375C24.3885 23.375 24.6004 23.2894 24.7567 23.137C24.913 22.9847 25.0008 22.778 25.0008 22.5625V14.2344L15.4003 6.52885C15.2874 6.44015 15.1468 6.39178 15.0018 6.39178C14.8569 6.39178 14.7163 6.44015 14.6034 6.52885ZM29.7716 11.77L25.4174 8.27065V1.23694C25.4174 1.07532 25.3516 0.920325 25.2344 0.806045C25.1172 0.691765 24.9582 0.627563 24.7924 0.627563H21.8758C21.71 0.627563 21.5511 0.691765 21.4338 0.806045C21.3166 0.920325 21.2508 1.07532 21.2508 1.23694V4.92416L16.5878 1.18362C16.1403 0.824584 15.5787 0.628281 14.9992 0.628281C14.4197 0.628281 13.8582 0.824584 13.4107 1.18362L0.226822 11.77C0.163535 11.821 0.111174 11.8836 0.0727322 11.9544C0.0342906 12.0251 0.0105212 12.1026 0.00278237 12.1823C-0.00495649 12.2619 0.0034868 12.3424 0.0276298 12.4189C0.0517728 12.4954 0.0911424 12.5665 0.143489 12.6282L1.47161 14.2024C1.52382 14.2643 1.58803 14.3155 1.66057 14.3532C1.73311 14.3909 1.81256 14.4142 1.89437 14.4219C1.97618 14.4296 2.05874 14.4215 2.13732 14.398C2.21591 14.3746 2.28898 14.3362 2.35234 14.2852L14.6034 4.44682C14.7163 4.35812 14.8569 4.30975 15.0018 4.30975C15.1468 4.30975 15.2874 4.35812 15.4003 4.44682L27.6518 14.2852C27.7151 14.3362 27.788 14.3746 27.8665 14.3981C27.945 14.4217 28.0275 14.4299 28.1092 14.4224C28.1909 14.4148 28.2704 14.3916 28.3429 14.3542C28.4155 14.3167 28.4797 14.2656 28.532 14.2039L29.8602 12.6297C29.9125 12.5677 29.9517 12.4962 29.9755 12.4193C29.9994 12.3425 30.0074 12.2618 29.9992 12.1819C29.991 12.102 29.9666 12.0245 29.9276 11.9538C29.8885 11.8831 29.8355 11.8206 29.7716 11.77Z" fill="#6A6A6A"/>
</svg>
