<svg width="124" height="63" fill="none" xmlns="http://www.w3.org/2000/svg">
  <path d="M7.903 45.29h.513c1.34 0 2.228.718 2.663 2.153v.711c-.211 1.987-.791 2.98-1.74 2.98h-.203c-.562 0-.94-.446-1.135-1.338l.104-.51v-.827c-1.018 0-2.351 1.435-3.998 4.305a6.77 6.77 0 00-.72 2.568v.51c0 1.166.82 1.75 2.461 1.75l4.305-.307c.757.135 1.135.51 1.135 1.125 0 1.236-1.538 2.092-4.613 2.568H5.338c-2.537 0-4.246-1.23-5.126-3.69A5.489 5.489 0 010 55.846v-.096c0-2.782 1.403-5.654 4.21-8.614 1.31-1.23 2.542-1.846 3.693-1.846z" fill="#fff"/>
  <path d="M21.322 45.29h.511c1.165.229 1.748 1.049 1.749 2.46 0 .996-.422 3.314-1.266 6.953 1.224.028 1.717.58 1.48 1.655a2.234 2.234 0 01-2.061 1.851c-.27 1.709-.92 2.565-1.95 2.568-.954 0-1.53-.852-1.725-2.556-.82.124-2.263.223-4.325.299-.505.891-1.016 1.337-1.538 1.337h-.212c-.615-.093-.922-.4-.922-.923v-.31c.854-2.497 3.145-6.089 6.872-10.775 1.533-1.707 2.662-2.56 3.387-2.559zm-5.431 9.74v.104c.914-.136 1.868-.266 2.864-.395.206-.218.548-1.762 1.027-4.633a34.173 34.173 0 00-3.891 4.923z" fill="#fff"/>
  <path d="M30.872 45.493a2.435 2.435 0 012.46 1.433l.105.613v.104c-.245 1.3-.828 1.95-1.75 1.95-.245-.023-.62-.367-1.124-1.027a4.447 4.447 0 00-2.768 1.23v.105c2.595 2.414 3.892 4.43 3.892 6.046 0 2.122-1.332 3.798-3.997 5.028a5.256 5.256 0 01-1.74.412c-1.981 0-3.145-.65-3.491-1.95v-.204c0-.685.753-1.028 2.258-1.027 2.325-.434 3.488-1.152 3.49-2.153v-.307c0-.505-1.06-1.838-3.182-3.998a3.225 3.225 0 01-.613-1.95c0-2.068 1.88-3.503 5.643-4.305h.817zM44.505 45.493a1.525 1.525 0 011.337 1.538c0 .795-1.061 3.496-3.183 8.103-1.658 4.283-2.683 6.437-3.074 6.463a3.773 3.773 0 01-.924.203 1.57 1.57 0 01-1.433-1.633c0-.55.58-2.296 1.741-5.238h-.092c-1.64.105-2.46.309-2.46.613-.91 2.808-1.867 4.21-2.876 4.21-.891-.112-1.334-.522-1.334-1.23a9.816 9.816 0 01.922-3.384 1.268 1.268 0 01-.715-1.026v-.411c0-.644.647-1.121 1.941-1.433 1.394-3.826 2.42-5.74 3.076-5.74h.308c.592 0 .97.443 1.133 1.327 0 .387-.378 1.72-1.133 3.998l2.363.308 2.972-6.047c.39-.368.896-.587 1.43-.621zM48.724 46.52a1.57 1.57 0 011.433 1.634v.211c0 .48-1.298 3.899-3.893 10.256-.844 1.572-1.597 2.357-2.26 2.356-.822-.194-1.232-.605-1.23-1.23v-.412c0-1.354 1.537-5.388 4.612-12.101a2.02 2.02 0 011.338-.714zM61.758 46.416c.587 0 .997.446 1.23 1.337v.511c0 .359-.785 2.101-2.355 5.228-2.074 5.197-3.478 7.796-4.21 7.796-.246.03-.486.1-.71.203-1.66 0-2.721-2.29-3.183-6.873l-.105-.613c-.251.234-1 2.218-2.249 5.951-.295.33-.696.547-1.133.613-.664 0-1.074-.375-1.23-1.126v-.307c0-.914.891-3.753 2.674-8.516.72-1.774 1.54-2.662 2.46-2.663h.096c1.425 0 2.28 1.81 2.563 5.432.228 1.23.399 1.845.511 1.845 2.45-5.877 4.09-8.815 4.92-8.815l.721-.003z" fill="#fff"/>
  <path d="M69.447 46.52c1.64.263 2.46 1.016 2.46 2.26v.412c-.164 1.572-.747 2.357-1.75 2.356-.614-.088-.922-.395-.921-.923v-1.126c-1.267 0-2.668 1.4-4.2 4.202a6.566 6.566 0 00-.512 2.153v.411c.14 1.572.653 2.357 1.537 2.356h.404c.637 0 1.323-.58 2.057-1.74v-.212c-1.23-.223-1.846-.768-1.846-1.634v-.307c0-.832.75-1.313 2.25-1.442 2.325 0 3.488.788 3.49 2.365 0 1.405-.856 3.01-2.567 4.816-1.084.892-2.006 1.337-2.768 1.337h-1.019c-2.003 0-3.438-1.266-4.305-3.797a5.426 5.426 0 01-.212-1.433v-.52c0-2.96 1.506-5.728 4.517-8.306a5.728 5.728 0 013.385-1.228zM82.378 46.116h.51c1.165.229 1.748 1.049 1.75 2.46 0 .997-.423 3.314-1.268 6.953 1.226.028 1.72.58 1.482 1.656a2.235 2.235 0 01-2.062 1.85c-.27 1.71-.921 2.565-1.95 2.568-.957 0-1.529-.852-1.723-2.556-.822.124-2.264.224-4.326.299-.505.891-1.016 1.337-1.537 1.337h-.213c-.614-.093-.921-.4-.922-.923v-.307c.855-2.497 3.146-6.089 6.874-10.775 1.526-1.709 2.655-2.563 3.385-2.562zm-5.432 9.737v.107c.915-.136 1.868-.265 2.866-.395.206-.217.549-1.762 1.028-4.633a34.14 34.14 0 00-3.897 4.921h.003zM99.941 45.598c1.3.25 1.95.9 1.95 1.95 0 .674-.891 3.887-2.674 9.639-.38 2.872-1.2 4.307-2.46 4.305h-.096c-.827 0-1.307-.65-1.442-1.95.205-1.317.686-3.368 1.442-6.15-1.589 2.121-2.614 3.182-3.076 3.182a7.36 7.36 0 01-.613.096c-.833 0-1.448-.58-1.845-1.74-.056-1.025-.155-1.538-.307-1.538l-3.288 7.592a2.032 2.032 0 01-1.019.404c-.631 0-1.01-.478-1.134-1.433 0-1.45 1.47-5.278 4.413-11.487.796-1.3 1.58-1.95 2.355-1.95h.212c1.23 0 1.846 1.403 1.846 4.21a29.144 29.144 0 002.154-2.568c1.59-1.654 2.784-2.508 3.582-2.562zM108.926 46.828h.203c2.254 0 3.382.583 3.383 1.749 0 .48-.375.855-1.125 1.126-.751-.07-1.4-.104-1.95-.104h-.721c-1.012 0-1.798.82-2.355 2.46 1.639 0 2.905.41 3.798 1.23 0 .207.03.308.095.308 0 .827-1.81 1.513-5.431 2.057a18.292 18.292 0 00-.923 2.663h.105c2.34-.338 3.775-.508 4.305-.51h.404c1.781 0 2.672.41 2.675 1.23v.203c0 1.242-2.838 2.097-8.515 2.568h-.308c-1.366 0-2.151-.615-2.355-1.846a.734.734 0 00-.106-.307c0-.387.446-1.858 1.338-4.413v-.104a1.494 1.494 0 01-.308-1.019c0-.643.512-1.156 1.537-1.538a9.99 9.99 0 013.491-5.132 5.365 5.365 0 012.763-.621zM120.464 46.32a2.432 2.432 0 012.46 1.433l.104.613v.105c-.245 1.3-.828 1.95-1.748 1.95-.246-.023-.621-.367-1.126-1.027a4.452 4.452 0 00-2.768 1.23v.104c2.595 2.415 3.893 4.43 3.894 6.047 0 2.121-1.333 3.797-3.999 5.028a5.253 5.253 0 01-1.74.412c-1.981 0-3.144-.65-3.49-1.95v-.204c0-.686.752-1.028 2.256-1.027 2.325-.434 3.489-1.152 3.491-2.153v-.307c0-.506-1.061-1.838-3.183-3.999a3.23 3.23 0 01-.612-1.95c0-2.068 1.88-3.503 5.642-4.305h.819z" fill="#FAD701"/>
  <path d="M73.703 4.737c.108-.096.206-.19.305-.279.008-.008.033-.003.05.006.344.146.69.29 1.033.44a.083.083 0 00.104-.011c.112-.107.23-.212.35-.319-.253-.279-.505-.553-.76-.832.106-.096.207-.186.311-.282.251.278.501.55.76.832.093-.085.183-.167.278-.251l.167.186c-.087.082-.177.164-.27.248l.191.212.272-.248c.055.059.104.111.16.175-.088.082-.177.163-.274.248.254.279.501.547.75.824l-.03.037c-.06.047-.117.099-.167.155-.07.093-.155.088-.279.032-.302-.139-.609-.26-.914-.39a.076.076 0 00-.093.008 12.28 12.28 0 01-.353.321c.252.279.502.55.753.827l-.312.285c-.252-.274-.498-.547-.75-.824l-.28.251-.16-.177.273-.249-.191-.212c-.09.082-.181.164-.271.249l-.168-.186c.088-.082.178-.164.274-.249-.257-.277-.505-.55-.759-.827zm2.201.234c-.069-.074-.127-.141-.19-.206l-.306.278c.089.04.167.074.25.104a.069.069 0 00.055-.005c.063-.053.126-.114.191-.17V4.97zm-.768.691l.299-.273c-.09-.04-.175-.074-.257-.107-.011-.006-.028-.009-.033-.003-.065.059-.13.119-.198.178.068.072.127.14.19.205zm1.165-.242c0-.003.004-.006.004-.011-.08-.085-.158-.172-.238-.26-.042.04-.081.076-.13.119.128.053.246.1.364.15v.002zm-1.404-.263c-.116-.047-.227-.095-.335-.14v.01c.07.08.144.159.217.24.038-.037.075-.072.118-.11zM48.815 27.385a349.11 349.11 0 012.996-6.478c1.026-2.141 2.048-4.29 3.106-6.416a318.752 318.752 0 013.246-6.346c.557-1.05 1.106-2.105 1.68-3.146.287-.519.574-1.038.87-1.554.288-.525.618-1.025.988-1.496l-.005.006.7-.99.024-.034.04.014 2.842 1.047.084.031-.042.082-3.38 6.492c-1.137 2.159-2.26 4.325-3.411 6.476a670.516 670.516 0 01-3.45 6.455l-3.476 6.436-.02.037-.039-.008-2.753-.608zm.025-.01l2.75.516-.062.028 3.37-6.498c1.117-2.17 2.26-4.325 3.398-6.48 1.14-2.157 2.292-4.309 3.44-6.464l3.471-6.445.043.112-2.825-1.092.065-.02-.708.985-.005.006c-.368.462-.697.953-.983 1.47-.302.51-.586 1.032-.868 1.554a124.446 124.446 0 00-1.64 3.163c-1.067 2.122-2.096 4.263-3.145 6.394L52 21l-1.574 3.197-1.587 3.177zM66.477 27.464c.334-.379.64-.734.955-1.08.028-.032.119-.02.178-.003 1.256.375 2.512.747 3.764 1.131a.283.283 0 00.356-.079c.35-.417.717-.824 1.092-1.25l-2.968-2.607.973-1.108c.982.86 1.964 1.723 2.963 2.601.294-.334.573-.655.863-.982l.664.581c-.279.316-.562.638-.853.971.26.228.502.437.754.663l.852-.97.627.55c-.279.316-.557.637-.853.97.989.87 1.956 1.716 2.935 2.576-.028.048-.06.094-.093.139-.19.187-.363.39-.519.606-.214.347-.506.367-.954.22-1.106-.363-2.223-.668-3.335-.999-.144-.042-.234-.034-.319.068-.35.418-.717.822-1.1 1.261.988.867 1.96 1.724 2.946 2.588-.339.386-.652.745-.977 1.114-.981-.86-1.946-1.71-2.933-2.576-.292.335-.577.655-.867.985L70 32.28l.852-.97c-.26-.229-.501-.438-.754-.66l-.852.97a97.314 97.314 0 01-.66-.581c.279-.316.557-.638.855-.974l-2.963-2.602zm7.758-.037c-.26-.229-.501-.437-.736-.646l-.96 1.092c.327.098.619.191.915.27a.207.207 0 00.183-.045c.203-.211.393-.434.598-.671zm-2.41 2.714c.32-.364.622-.705.94-1.07-.334-.098-.635-.188-.933-.273-.04-.01-.102-.016-.122.006-.209.228-.41.46-.613.694l.729.643zm3.968-1.306c.003-.011.003-.026.005-.037-.307-.268-.613-.539-.922-.81-.133.153-.257.294-.404.46.458.133.89.26 1.32.387zm-4.994-.364c-.424-.127-.821-.242-1.22-.36a.334.334 0 01-.008.039c.283.245.562.493.853.747.124-.141.236-.271.375-.426z" fill="#fff"/>
  <path d="M60.6 30.672c-.112-.471-.234-.925-.35-1.369-.051-.222-.094-.462-.139-.69a5.823 5.823 0 01-.104-.703 12.561 12.561 0 01-.09-1.42c.009-.476.046-.952.111-1.424.127-.952.385-1.881.766-2.762a10.26 10.26 0 011.515-2.458 11.437 11.437 0 0110.565-3.713c.964.158 1.91.41 2.825.753.452.186.907.372 1.346.584l.647.35.324.174c.107.06.206.133.311.198a15.244 15.244 0 014.264 4.011 13.652 13.652 0 012.313 5.423c.095.49.158.986.19 1.485.02.248.026.497.016.745l-.005.75-.08.746c-.019.249-.053.497-.1.742l-.162.734-.081.366c-.004.011-.009.043-.009.034a.413.413 0 00.014-.076.259.259 0 00.004-.065c0-.006 0 .003.006.028a.99.99 0 01.022.164l-1.349-.46 2.663-3.039 2.675-3.027 5.355-6.05 1.019-.183a.391.391 0 00-.074-.031l-.055-.017-.099-.017a.775.775 0 00-.547.158.805.805 0 00-.324.714.667.667 0 00.076.27c.02.037 0 .003 0 .01l-.005-.012-.014-.02-.101-.167c-.074-.118-.168-.245-.252-.366a19.451 19.451 0 00-.581-.754c-.401-.501-.824-1.003-1.253-1.495a128.739 128.739 0 00-2.623-2.943 248.28 248.28 0 00-5.452-5.736 209.71 209.71 0 00-5.623-5.562c-.954-.894-1.924-1.803-2.918-2.58a5.36 5.36 0 00-.685-.472c-.037-.017-.07-.029-.067-.029.026.003.053 0 .079-.008a.122.122 0 00.056-.025.55.55 0 00-.073.073l-1.23 1.521a136.872 136.872 0 00-9.305 12.787 337.68 337.68 0 00-4.235 6.704l-2.061 3.392-1.03 1.699-.514.849c-.08.138-.186.293-.24.412-.059.135-.111.299-.174.456l-.104-.206c1.602.489 3.238 1.044 4.945 1.547zm0 0c-1.617-.43-3.307-.807-5.031-1.244l-.163-.043.06-.167c.055-.149.09-.305.154-.48.08-.186.158-.307.234-.46l.47-.877.938-1.75a311.77 311.77 0 011.916-3.481 214.663 214.663 0 013.992-6.882c1.377-2.27 2.8-4.513 4.303-6.71a113.59 113.59 0 014.72-6.424L73.437.571a2.04 2.04 0 01.279-.278c.144-.118.311-.204.49-.254.187-.047.382-.051.57-.014.139.028.273.072.401.132.342.178.666.387.969.624 1.103.84 2.076 1.735 3.064 2.635a166.891 166.891 0 015.733 5.545 235.64 235.64 0 015.516 5.75c.902.976 1.797 1.96 2.674 2.97.438.508.866 1.022 1.29 1.555.21.266.42.542.627.822.1.152.202.29.303.454l.153.257.02.03.008.018a.894.894 0 01.041.797.862.862 0 01-.662.504.832.832 0 01-.344-.017 1.422 1.422 0 01-.275-.108l1.02-.183-5.386 6.024-2.698 3.009-2.709 2.999-1.348-.46c.004.042.004.02-.003-.011a1.358 1.358 0 01-.02-.386c.006-.055.017-.108.032-.161l.011-.05.073-.322.152-.64a5.62 5.62 0 00.097-.652l.081-.655.012-.66c.012-.22.01-.441-.005-.66-.02-.442-.07-.881-.147-1.316a12.704 12.704 0 00-1.98-4.909 14.046 14.046 0 00-3.81-3.76c-.092-.063-.183-.133-.278-.19l-.294-.167-.587-.334c-.4-.204-.813-.384-1.226-.573a14.02 14.02 0 00-2.593-.785 10.873 10.873 0 00-5.349.266c-.218.061-.429.143-.647.217-.217.073-.42.167-.631.254-.413.185-.813.396-1.199.632a9.295 9.295 0 00-2.099 1.721 10.241 10.241 0 00-1.538 2.26 10.1 10.1 0 00-.872 2.615 13.358 13.358 0 00.246 5.556zM69.56 1.413c-.356.014-.705.042-1.064.048a13.57 13.57 0 01-1.073-.037 3.718 3.718 0 01-.545-.082c-.087-.02-.186-.05-.266-.073a1.161 1.161 0 00-.227-.048.421.421 0 00-.347.098 1.218 1.218 0 00-.256.362l-1.966 3.758c-.66 1.25-1.312 2.504-1.955 3.761-.648 1.256-1.298 2.508-1.933 3.77l-1.894 3.788a224.078 224.078 0 00-1.842 3.81c-1.242 2.53-2.353 5.125-3.522 7.696l-.43-1.123.21.09c.056.026.112.037.049.026l-.029-.003-.055-.002a.559.559 0 00-.377.153c-.063.064-.02.025.004-.026l.485-.849 1.008-1.755c.68-1.165 1.352-2.336 2.054-3.49 1.393-2.314 2.801-4.625 4.295-6.879a127.93 127.93 0 014.64-6.656c.819-1.078 1.64-2.153 2.495-3.2.431-.519.855-1.046 1.295-1.56l.663-.767.33-.38c.095-.137.18-.28.253-.43zm0 0c-.055.162-.123.32-.2.471l-.285.42-.567.836c-.384.558-.75 1.12-1.126 1.68l-1.106 1.69-1.086 1.7c-1.448 2.269-2.832 4.57-4.207 6.882-1.356 2.323-2.71 4.642-4.028 6.99L54.974 25.6l-.99 1.76-.249.44c-.085.15-.158.285-.268.47-.08.138-.18.265-.296.377a1.37 1.37 0 01-.18.138 1.134 1.134 0 01-.658.155l-.09-.01a1.907 1.907 0 01-.432-.128l-.255-.107-.792-.334.361-.787c1.182-2.579 2.334-5.172 3.612-7.712 1.294-2.527 2.604-5.047 4.012-7.513.7-1.236 1.403-2.466 2.127-3.685.724-1.218 1.465-2.43 2.207-3.636a236.6 236.6 0 012.291-3.586c.108-.176.247-.33.411-.455a.831.831 0 01.658-.121c.098.022.193.052.285.09.088.037.154.065.237.093.162.053.327.096.494.127.34.063.696.122 1.04.159l1.061.078zM61.665 2.093c-.613-.008-1.218.011-1.838-.01a6.931 6.931 0 01-.929-.097 1.12 1.12 0 00-.386-.008.346.346 0 00-.229.16 1.67 1.67 0 00-.154.36l-.15.431-.304.864-.607 1.727a444.225 444.225 0 01-2.526 6.87c-.846 2.289-1.747 4.554-2.619 6.83l-.668 1.696a100.66 100.66 0 00-.634 1.7l-1.226 3.444-.144.395c-.014.043-.02.074-.02.065a.43.43 0 00-.055-.245.621.621 0 00-.274-.273.356.356 0 00-.068-.025c-.08-.017-.056-.012-.05-.012a.628.628 0 00-.44.187.63.63 0 00.05-.077c.087-.152.225-.49.346-.756l.376-.836a132.406 132.406 0 011.569-3.323c1.086-2.195 2.184-4.385 3.374-6.524a158.18 158.18 0 017.606-12.543zm0 0c-2.117 4.407-4.322 8.755-6.436 13.14l-1.569 3.293c-.516 1.1-1.032 2.2-1.529 3.31-.496 1.108-1.003 2.211-1.49 3.323l-.366.832-.184.418c-.055.127-.132.31-.23.488a2.363 2.363 0 01-.2.304c-.062.077-.131.147-.207.21a1.011 1.011 0 01-.598.236c-.17.01-.339-.01-.502-.056a.896.896 0 01-.174-.068 1.098 1.098 0 01-.516-.506 1.218 1.218 0 01-.107-.694c.016-.128.044-.255.084-.378.035-.107.065-.186.089-.254l.079-.215 1.263-3.436c.43-1.149.889-2.305 1.368-3.42.96-2.243 1.895-4.497 2.884-6.726.971-2.24 1.972-4.464 2.98-6.69l.77-1.662.381-.83.195-.415c.07-.16.161-.312.27-.449a.794.794 0 01.541-.285c.177-.01.354.014.523.068.287.084.58.149.875.195.59.109 1.203.162 1.806.267z" fill="#fff"/>
  <path d="M43.487 18.715a50.705 50.705 0 00-2.847-.3 38.427 38.427 0 00-2.85-.134c-.94-.017-1.881.032-2.815.146a7.631 7.631 0 00-1.337.29c-.4.111-.765.317-1.067.6a.975.975 0 00-.226.942c.109.403.293.782.541 1.118.55.736 1.173 1.416 1.857 2.029a30.705 30.705 0 004.447 3.414 57.391 57.391 0 0010.133 4.977 94.054 94.054 0 0010.817 3.428c3.668.956 7.386 1.715 11.131 2.302 3.74.608 7.512.991 11.297 1.148 1.885.078 3.772.047 5.653-.093a23.366 23.366 0 002.775-.372 9.854 9.854 0 002.588-.852c.38-.19.717-.456.993-.78.252-.325.391-.723.397-1.134a2.831 2.831 0 00-.183-1.273 3.459 3.459 0 00-.717-1.114 7.103 7.103 0 00-2.308-1.535 13.448 13.448 0 00-2.71-.87c.955.11 1.897.32 2.807.63.936.305 1.8.795 2.545 1.439.38.343.69.759.909 1.222.218.477.326.996.316 1.52 0 .13-.009.261-.026.39-.008.065-.008.127-.022.195l-.051.206a1.55 1.55 0 01-.06.203l-.088.192c-.03.062-.055.13-.092.189l-.116.172a3.92 3.92 0 01-1.177 1.059c-.873.488-1.81.851-2.786 1.077a24.77 24.77 0 01-2.877.528c-.963.127-1.93.2-2.898.245-.968.045-1.933.068-2.897.065a96.604 96.604 0 01-22.826-3.135 92.077 92.077 0 01-10.984-3.58 54.489 54.489 0 01-10.27-5.367 35.375 35.375 0 01-2.333-1.75c-.38-.301-.742-.631-1.11-.95-.355-.335-.713-.666-1.049-1.022-.347-.344-.666-.716-.99-1.08-.33-.379-.632-.781-.903-1.205-.299-.448-.51-.95-.62-1.478a2.074 2.074 0 01.036-.906c.088-.301.256-.573.486-.787A3.27 3.27 0 0133.42 18a8.697 8.697 0 011.476-.229c.968-.062 1.94-.05 2.906.037 1.914.168 3.813.47 5.684.907z" fill="#fff"/>
  <path d="M42.603 23.703a63.54 63.54 0 005.143 2.652 88.09 88.09 0 005.3 2.243c1.794.671 3.59 1.323 5.422 1.873a70.799 70.799 0 005.53 1.501 78.93 78.93 0 005.618 1.129c1.881.347 3.789.538 5.688.758 3.837.35 7.69.503 11.542.46-3.834.71-7.734.998-11.63.858a59.008 59.008 0 01-11.607-1.56c-1.9-.466-3.79-.991-5.637-1.628-1.843-.652-3.671-1.349-5.44-2.181a53.347 53.347 0 01-5.178-2.73 35.328 35.328 0 01-4.75-3.375zM67.56 4.195c.195-.302.39-.598.59-.894.2-.297.395-.596.599-.892L69.965.643l.04-.06.072.012 1.978.268c.66.085 1.32.183 1.976.282l.237.037-.153.18c-.654.776-1.302 1.56-1.971 2.32-.334.38-.664.77-1.003 1.148-.34.378-.674.759-1.02 1.134.306-.409.62-.806.928-1.21.308-.404.628-.796.942-1.197.625-.798 1.275-1.58 1.915-2.367l.084.217a77.909 77.909 0 01-1.974-.282l-1.973-.29.116-.048-1.286 1.715c-.212.288-.434.567-.652.85-.218.281-.438.564-.66.843z" fill="#fff"/>
  <path d="M64.199 32.528c.149.025.3.056.449.08a12.236 12.236 0 01-2.181-4.14c-1.616-5.48 1.467-9.584 5.522-10.409.139.363.185.755.135 1.14a.238.238 0 01-.167.161 6.526 6.526 0 00-3.185 2.128c-1.405 1.755-1.829 3.89-1.242 6.376a10.414 10.414 0 002.81 5.02l.51.076a10.588 10.588 0 01-2.818-4.498c-1.428-4.652 1.182-7.925 3.956-8.692l.042.051a.88.88 0 01-.183.124 6.027 6.027 0 00-3.104 2.483 6.82 6.82 0 00-.858 4.903c.023.13.069.249.223.254.167.006.14-.13.118-.251a6.708 6.708 0 01.502-4.105 5.523 5.523 0 013.027-2.81c-.047.101-.092.206-.146.302a2.997 2.997 0 01-.187.305c-.093.135-.197.265-.294.398-.067.093-.194.183-.022.324.158.132.22 0 .302-.074.347-.296.674-.618 1.05-.88 1.077-.759 2.327-.711 3.702.111.437.263.848.579 1.272.87.046.033.09.07.132.11.104.088.22.179.317.069.097-.11-.018-.2-.112-.3a98.667 98.667 0 01-1.255-1.337 2.43 2.43 0 01-.192-.265c.639.13 1.26.333 1.853.604 4.817 2.153 7.394 7.585 5.45 11.523a5.668 5.668 0 01-1.338 1.758c.181.003.364.006.545.006 2.355-2.35 2.429-6.419.02-9.807a10.865 10.865 0 00-6.594-4.438.645.645 0 01-.251-.144c2.914.313 7.02 2.965 8.404 7.235.924 2.841.354 5.448-1.232 7.158h.505c2.006-2.39 2.125-6.182-.116-9.636a11.313 11.313 0 00-7.486-5.13c-.237-.047-.347-.134-.377-.349-.045-.296-.094-.592-.141-.892 3.884.41 8.944 3.734 10.481 9.069a8.61 8.61 0 01-.697 6.909c.153-.006.305-.009.454-.014a8.231 8.231 0 001.003-4.072 11.3 11.3 0 00-2.46-6.9 13.661 13.661 0 00-8.7-5.361c.02-.094.035-.175.056-.252a4.811 4.811 0 01.922-1.735c.072-.09.161-.189.01-.313-.14-.111-.21-.006-.292.065-.39.358-.803.692-1.235.999-.917.59-1.98.586-3.166-.02a9.895 9.895 0 01-1.768-1.17c-.105-.085-.215-.186-.313-.073-.1.112.005.209.106.302l1.874 2.313c-5.203 1.253-7.325 6.314-5.54 11.362a12.78 12.78 0 001.9 3.479z" fill="#fff"/>
  <path d="M67.398 16.405c1.578.918 2.954.94 4.184.112a3.7 3.7 0 00.768 4.116c-1.563-.903-2.948-.956-4.187-.121.637-1.348.36-2.709-.765-4.107z" fill="#fff"/>
  <path d="M42.57 16.405c1.578.918 2.953.94 4.185.112a3.699 3.699 0 00.768 4.116c-1.563-.903-2.949-.956-4.187-.121.637-1.348.359-2.709-.766-4.107z" stroke="#fff" stroke-miterlimit="10"/>
</svg>