<svg width="154" height="154" viewBox="0 0 154 154" fill="none" xmlns="http://www.w3.org/2000/svg">
<path d="M131.45 22.5498C116.915 8.01487 97.5779 0 77 0C56.4221 0 37.0847 8.01487 22.5498 22.5498C8.01487 37.0847 0 56.4221 0 77C0 97.5779 8.01487 116.915 22.5498 131.45C37.0847 145.985 56.4221 154 77 154C97.5779 154 116.915 145.985 131.45 131.45C145.985 116.915 154 97.5779 154 77C154 56.4221 145.985 37.0847 131.45 22.5498ZM77 51.7786C72.1338 51.7786 68.19 55.7224 68.19 60.5886C68.19 62.8149 66.3771 64.6278 64.1508 64.6278C61.9244 64.6278 60.1115 62.8149 60.1115 60.5886C60.1115 51.2697 67.6811 43.7001 77 43.7001C79.2264 43.7001 81.0392 45.513 81.0392 47.7394C81.0392 49.9657 79.2264 51.7786 77 51.7786ZM119.651 119.173C115.166 102.985 106.674 88.8633 91.2805 83.5518C98.9455 78.7811 104.034 70.2891 104.034 60.5886C104.034 45.6402 91.9166 33.5543 77 33.5543C62.0834 33.5543 49.9657 45.672 49.9657 60.5886C49.9657 70.2891 55.0545 78.7811 62.7195 83.5518C47.3259 88.8633 38.834 102.985 34.3494 119.173C23.6311 108.328 16.9839 93.4114 16.9839 77C16.9839 43.891 43.9228 16.9839 77 16.9839C110.109 16.9839 137.016 43.9228 137.016 77C137.016 93.4432 130.401 108.328 119.651 119.173Z" fill="#F0F0F0"/>
</svg>
