<svg width="154" height="154" fill="none" xmlns="http://www.w3.org/2000/svg">
  <path d="M131.45 22.55C116.915 8.015 97.578 0 77 0 56.422 0 37.085 8.015 22.55 22.55 8.015 37.085 0 56.422 0 77c0 20.578 8.015 39.915 22.55 54.45C37.085 145.985 56.422 154 77 154c20.578 0 39.915-8.015 54.45-22.55C145.985 116.915 154 97.578 154 77c0-20.578-8.015-39.915-22.55-54.45zM77 51.779a8.81 8.81 0 00-8.81 8.81 4.045 4.045 0 01-4.04 4.039 4.045 4.045 0 01-4.039-4.04C60.111 51.27 67.681 43.7 77 43.7a4.045 4.045 0 014.04 4.04A4.045 4.045 0 0177 51.778zm42.651 67.394c-4.485-16.188-12.977-30.31-28.37-35.621 7.664-4.77 12.753-13.263 12.753-22.963 0-14.949-12.117-27.035-27.034-27.035-14.917 0-27.034 12.118-27.034 27.035 0 9.7 5.088 18.192 12.753 22.963-15.393 5.311-23.885 19.433-28.37 35.621C23.631 108.328 16.984 93.411 16.984 77c0-33.109 26.939-60.016 60.016-60.016 33.109 0 60.016 26.939 60.016 60.016 0 16.443-6.615 31.328-17.365 42.173z" fill="#F0F0F0"/>
</svg>